<svg width="1851" height="537" viewBox="0 0 1851 537" fill="none" xmlns="http://www.w3.org/2000/svg">
<g opacity="0.3">
<path d="M1662.81 120.221L1672.47 129.88L1646.78 155.563L1621.1 129.88L1630.68 120.294L1646.71 136.319L1662.81 120.221Z" fill="white"/>
<path d="M1662.81 85.5386L1672.39 95.1241L1646.71 120.807L1621.1 95.1973L1630.76 85.5386L1646.78 101.563L1662.81 85.5386Z" fill="white"/>
<path d="M1662.73 50.7816L1672.39 60.4404L1646.78 86.0506L1621.1 60.3672L1630.68 50.7816L1646.71 66.8063L1662.73 50.7816Z" fill="white"/>
<path d="M1662.81 16.0239L1672.46 25.6826L1646.78 51.366L1621.1 25.6826L1630.76 16.0239L1646.78 32.0486L1662.81 16.0239Z" fill="white"/>
</g>
<g opacity="0.3">
<path d="M730.486 574.89C741.205 574.89 749.937 566.165 749.937 555.453C749.937 544.742 741.205 536.017 730.486 536.017L730.486 574.89Z" fill="white"/>
<path d="M700.141 574.89C710.861 574.89 719.592 566.165 719.592 555.453C719.592 544.742 710.861 536.017 700.141 536.017L700.141 574.89Z" fill="white"/>
<path d="M669.797 574.89C680.516 574.89 689.248 566.165 689.248 555.453C689.248 544.742 680.516 536.017 669.797 536.017L669.797 574.89Z" fill="white"/>
</g>
<g opacity="0.3">
<path d="M28.3012 189.921L28.3012 178L60 178L60 209.699L48.1694 209.699L48.1694 189.921L28.3012 189.921Z" fill="white"/>
<path d="M6.89889 211.325L6.89888 199.494L38.5977 199.494L38.5977 231.103L26.6768 231.103L26.6767 211.325L6.89889 211.325Z" fill="white"/>
<path d="M-14.5049 232.819L-14.5049 220.898L17.1035 220.898L17.1035 252.597L5.27292 252.597L5.27292 232.819L-14.5049 232.819Z" fill="white"/>
</g>
</svg>
