<svg width="137" height="116" viewBox="0 0 137 116" fill="none" xmlns="http://www.w3.org/2000/svg">
<path d="M4.64927 34.5229C4.64927 35.7971 3.81905 36.7528 2.71209 36.7528C1.60512 36.7528 0.774902 35.7971 0.774902 34.5229C0.774902 33.2486 1.60512 32.293 2.71209 32.293C3.81905 32.293 4.64927 33.3548 4.64927 34.5229Z" fill="#FFCF2D"/>
<path d="M21.1615 34.5228C21.1615 35.797 20.3313 36.7527 19.2243 36.7527C18.1173 36.7527 17.2871 35.797 17.2871 34.5228C17.2871 33.2486 18.1173 32.293 19.2243 32.293C20.239 32.293 21.1615 33.3548 21.1615 34.5228Z" fill="#FFCF2D"/>
<path d="M37.5814 34.5229C37.5814 35.7971 36.7512 36.7528 35.6442 36.7528C34.5373 36.7528 33.707 35.7971 33.707 34.5229C33.707 33.2486 34.5373 32.293 35.6442 32.293C36.7512 32.293 37.5814 33.3548 37.5814 34.5229Z" fill="#FFCF2D"/>
<path d="M54.0936 34.5229C54.0936 35.7971 53.2634 36.7528 52.1564 36.7528C51.0495 36.7528 50.2192 35.7971 50.2192 34.5229C50.2192 33.2486 51.0495 32.293 52.1564 32.293C53.2634 32.293 54.0936 33.3548 54.0936 34.5229Z" fill="#FFCF2D"/>
<path d="M70.6058 34.5229C70.6058 35.7971 69.7756 36.7528 68.6686 36.7528C67.5617 36.7528 66.7314 35.7971 66.7314 34.5229C66.7314 33.2486 67.5617 32.293 68.6686 32.293C69.6833 32.293 70.6058 33.3548 70.6058 34.5229Z" fill="#FFCF2D"/>
<path d="M87.118 34.5229C87.118 35.7971 86.2878 36.7528 85.1808 36.7528C84.0739 36.7528 83.2437 35.7971 83.2437 34.5229C83.2437 33.2486 84.0739 32.293 85.1808 32.293C86.2878 32.293 87.118 33.3548 87.118 34.5229Z" fill="#FFCF2D"/>
<path d="M103.538 34.5229C103.538 35.7971 102.708 36.7528 101.601 36.7528C100.494 36.7528 99.6636 35.7971 99.6636 34.5229C99.6636 33.2486 100.494 32.293 101.601 32.293C102.708 32.293 103.538 33.3548 103.538 34.5229Z" fill="#FFCF2D"/>
<path d="M120.05 34.5229C120.05 35.7971 119.22 36.7528 118.113 36.7528C117.006 36.7528 116.176 35.7971 116.176 34.5229C116.176 33.2486 117.006 32.293 118.113 32.293C119.22 32.293 120.05 33.3548 120.05 34.5229Z" fill="#FFCF2D"/>
<path d="M136.562 34.5228C136.562 35.797 135.732 36.7527 134.625 36.7527C133.518 36.7527 132.688 35.797 132.688 34.5228C132.688 33.2486 133.518 32.293 134.625 32.293C135.64 32.293 136.562 33.3548 136.562 34.5228Z" fill="#FFCF2D"/>
<path d="M4.64927 50.3453C4.64927 51.6196 3.81905 52.5753 2.71209 52.5753C1.60512 52.5753 0.774902 51.6196 0.774902 50.3453C0.774902 49.071 1.60512 48.1152 2.71209 48.1152C3.81905 48.1152 4.64927 49.071 4.64927 50.3453Z" fill="#FFCF2D"/>
<path d="M21.1615 50.3452C21.1615 51.6195 20.3313 52.5752 19.2243 52.5752C18.1173 52.5752 17.2871 51.6195 17.2871 50.3452C17.2871 49.0709 18.1173 48.1152 19.2243 48.1152C20.239 48.1152 21.1615 49.0709 21.1615 50.3452Z" fill="#FFCF2D"/>
<path d="M37.5814 50.3453C37.5814 51.6196 36.7512 52.5753 35.6442 52.5753C34.5373 52.5753 33.707 51.6196 33.707 50.3453C33.707 49.071 34.5373 48.1152 35.6442 48.1152C36.7512 48.1152 37.5814 49.071 37.5814 50.3453Z" fill="#FFCF2D"/>
<path d="M54.0936 50.3453C54.0936 51.6196 53.2634 52.5753 52.1564 52.5753C51.0495 52.5753 50.2192 51.6196 50.2192 50.3453C50.2192 49.071 51.0495 48.1152 52.1564 48.1152C53.2634 48.1152 54.0936 49.071 54.0936 50.3453Z" fill="#FFCF2D"/>
<path d="M70.6058 50.3453C70.6058 51.6196 69.7756 52.5753 68.6686 52.5753C67.5617 52.5753 66.7314 51.6196 66.7314 50.3453C66.7314 49.071 67.5617 48.1152 68.6686 48.1152C69.6833 48.1152 70.6058 49.071 70.6058 50.3453Z" fill="#FFCF2D"/>
<path d="M87.118 50.3453C87.118 51.6196 86.2878 52.5753 85.1808 52.5753C84.0739 52.5753 83.2437 51.6196 83.2437 50.3453C83.2437 49.071 84.0739 48.1152 85.1808 48.1152C86.2878 48.1152 87.118 49.071 87.118 50.3453Z" fill="#FFCF2D"/>
<path d="M103.538 50.3453C103.538 51.6196 102.708 52.5753 101.601 52.5753C100.494 52.5753 99.6636 51.6196 99.6636 50.3453C99.6636 49.071 100.494 48.1152 101.601 48.1152C102.708 48.1152 103.538 49.071 103.538 50.3453Z" fill="#FFCF2D"/>
<path d="M120.05 50.3453C120.05 51.6196 119.22 52.5753 118.113 52.5753C117.006 52.5753 116.176 51.6196 116.176 50.3453C116.176 49.071 117.006 48.1152 118.113 48.1152C119.22 48.1152 120.05 49.071 120.05 50.3453Z" fill="#FFCF2D"/>
<path d="M136.562 50.3452C136.562 51.6195 135.732 52.5752 134.625 52.5752C133.518 52.5752 132.688 51.6195 132.688 50.3452C132.688 49.0709 133.518 48.1152 134.625 48.1152C135.64 48.1152 136.562 49.0709 136.562 50.3452Z" fill="#FFCF2D"/>
<path d="M4.64927 2.98583C4.64927 4.2601 3.81905 5.2158 2.71209 5.2158C1.60512 5.2158 0.774902 4.2601 0.774902 2.98583C0.774902 1.71156 1.60512 0.755859 2.71209 0.755859C3.81905 0.755859 4.64927 1.71156 4.64927 2.98583Z" fill="#FFCF2D"/>
<path d="M21.1615 2.98583C21.1615 4.2601 20.3313 5.2158 19.2243 5.2158C18.1173 5.2158 17.2871 4.2601 17.2871 2.98583C17.2871 1.71156 18.1173 0.755859 19.2243 0.755859C20.239 0.755859 21.1615 1.71156 21.1615 2.98583Z" fill="#FFCF2D"/>
<path d="M37.5814 2.98583C37.5814 4.2601 36.7512 5.2158 35.6442 5.2158C34.5373 5.2158 33.707 4.2601 33.707 2.98583C33.707 1.71156 34.6295 0.755859 35.6442 0.755859C36.7512 0.755859 37.5814 1.71156 37.5814 2.98583Z" fill="#FFCF2D"/>
<path d="M54.0936 2.98583C54.0936 4.2601 53.2634 5.2158 52.1564 5.2158C51.0495 5.2158 50.2192 4.2601 50.2192 2.98583C50.2192 1.71156 51.1417 0.755859 52.1564 0.755859C53.1711 0.755859 54.0936 1.71156 54.0936 2.98583Z" fill="#FFCF2D"/>
<path d="M70.6058 2.98583C70.6058 4.2601 69.7756 5.2158 68.6686 5.2158C67.5617 5.2158 66.7314 4.2601 66.7314 2.98583C66.7314 1.71156 67.5617 0.755859 68.6686 0.755859C69.6833 0.755859 70.6058 1.71156 70.6058 2.98583Z" fill="#FFCF2D"/>
<path d="M87.118 2.98583C87.118 4.2601 86.2878 5.2158 85.1808 5.2158C84.0739 5.2158 83.2437 4.2601 83.2437 2.98583C83.2437 1.71156 84.0739 0.755859 85.1808 0.755859C86.2878 0.755859 87.118 1.71156 87.118 2.98583Z" fill="#FFCF2D"/>
<path d="M103.538 2.98577C103.538 4.26 102.708 5.21568 101.601 5.21568C100.494 5.21568 99.6636 4.26 99.6636 2.98577C99.6636 1.71153 100.494 0.755859 101.601 0.755859C102.708 0.755859 103.538 1.71153 103.538 2.98577Z" fill="#FFCF2D"/>
<path d="M120.05 2.98583C120.05 4.2601 119.22 5.2158 118.113 5.2158C117.006 5.2158 116.176 4.2601 116.176 2.98583C116.176 1.71156 117.006 0.755859 118.113 0.755859C119.22 0.755859 120.05 1.71156 120.05 2.98583Z" fill="#FFCF2D"/>
<path d="M136.562 2.98583C136.562 4.2601 135.732 5.2158 134.625 5.2158C133.518 5.2158 132.688 4.2601 132.688 2.98583C132.688 1.71156 133.518 0.755859 134.625 0.755859C135.64 0.755859 136.562 1.71156 136.562 2.98583Z" fill="#FFCF2D"/>
<path d="M4.64929 18.8082C4.64929 20.0825 3.81906 21.0382 2.71209 21.0382C1.60513 21.0382 0.774902 19.9763 0.774902 18.8082C0.774902 17.5339 1.60513 16.5781 2.71209 16.5781C3.81906 16.5781 4.64929 17.5339 4.64929 18.8082Z" fill="#FFCF2D"/>
<path d="M21.1615 18.8082C21.1615 20.0825 20.3313 21.0382 19.2243 21.0382C18.1173 21.0382 17.2871 20.0825 17.2871 18.8082C17.2871 17.5339 18.1173 16.5781 19.2243 16.5781C20.239 16.5781 21.1615 17.5339 21.1615 18.8082Z" fill="#FFCF2D"/>
<path d="M37.5814 18.8082C37.5814 20.0825 36.7512 21.0382 35.6442 21.0382C34.5373 21.0382 33.707 20.0825 33.707 18.8082C33.707 17.5339 34.5373 16.5781 35.6442 16.5781C36.7512 16.5781 37.5814 17.5339 37.5814 18.8082Z" fill="#FFCF2D"/>
<path d="M54.0936 18.8081C54.0936 20.0824 53.2634 21.0381 52.1564 21.0381C51.0495 21.0381 50.2192 20.0824 50.2192 18.8081C50.2192 17.5338 51.0495 16.5781 52.1564 16.5781C53.2634 16.5781 54.0936 17.5338 54.0936 18.8081Z" fill="#FFCF2D"/>
<path d="M70.6058 18.8082C70.6058 20.0825 69.7756 21.0382 68.6686 21.0382C67.5617 21.0382 66.7314 20.0825 66.7314 18.8082C66.7314 17.5339 67.5617 16.5781 68.6686 16.5781C69.6833 16.5781 70.6058 17.5339 70.6058 18.8082Z" fill="#FFCF2D"/>
<path d="M87.118 18.8082C87.118 20.0825 86.2878 21.0382 85.1808 21.0382C84.0739 21.0382 83.2437 20.0825 83.2437 18.8082C83.2437 17.5339 84.0739 16.5781 85.1808 16.5781C86.2878 16.5781 87.118 17.5339 87.118 18.8082Z" fill="#FFCF2D"/>
<path d="M103.538 18.8082C103.538 20.0825 102.708 21.0382 101.601 21.0382C100.494 21.0382 99.6636 20.0825 99.6636 18.8082C99.6636 17.5339 100.494 16.5781 101.601 16.5781C102.708 16.5781 103.538 17.5339 103.538 18.8082Z" fill="#FFCF2D"/>
<path d="M120.05 18.8082C120.05 20.0825 119.22 21.0382 118.113 21.0382C117.006 21.0382 116.176 20.0825 116.176 18.8082C116.176 17.5339 117.006 16.5781 118.113 16.5781C119.22 16.5781 120.05 17.5339 120.05 18.8082Z" fill="#FFCF2D"/>
<path d="M136.562 18.8082C136.562 20.0825 135.732 21.0382 134.625 21.0382C133.518 21.0382 132.688 20.0825 132.688 18.8082C132.688 17.5339 133.518 16.5781 134.625 16.5781C135.64 16.5781 136.562 17.5339 136.562 18.8082Z" fill="#FFCF2D"/>
<path d="M4.64927 66.0619C4.64927 67.3362 3.81905 68.2918 2.71209 68.2918C1.60512 68.2918 0.774902 67.3362 0.774902 66.0619C0.774902 64.7877 1.60512 63.832 2.71209 63.832C3.81905 63.832 4.64927 64.8939 4.64927 66.0619Z" fill="#FFCF2D"/>
<path d="M21.1615 66.0619C21.1615 67.3361 20.3313 68.2917 19.2243 68.2917C18.1173 68.2917 17.2871 67.3361 17.2871 66.0619C17.2871 64.7877 18.1173 63.832 19.2243 63.832C20.239 63.832 21.1615 64.8939 21.1615 66.0619Z" fill="#FFCF2D"/>
<path d="M37.5814 66.0619C37.5814 67.3362 36.7512 68.2918 35.6442 68.2918C34.5373 68.2918 33.707 67.3362 33.707 66.0619C33.707 64.7877 34.5373 63.832 35.6442 63.832C36.7512 63.832 37.5814 64.8939 37.5814 66.0619Z" fill="#FFCF2D"/>
<path d="M54.0936 66.0619C54.0936 67.3362 53.2634 68.2918 52.1564 68.2918C51.0495 68.2918 50.2192 67.3362 50.2192 66.0619C50.2192 64.7877 51.0495 63.832 52.1564 63.832C53.2634 63.832 54.0936 64.8939 54.0936 66.0619Z" fill="#FFCF2D"/>
<path d="M70.6058 66.0619C70.6058 67.3362 69.7756 68.2918 68.6686 68.2918C67.5617 68.2918 66.7314 67.3362 66.7314 66.0619C66.7314 64.7877 67.5617 63.832 68.6686 63.832C69.6833 63.832 70.6058 64.8939 70.6058 66.0619Z" fill="#FFCF2D"/>
<path d="M87.118 66.0619C87.118 67.3362 86.2878 68.2918 85.1808 68.2918C84.0739 68.2918 83.2437 67.3362 83.2437 66.0619C83.2437 64.7877 84.0739 63.832 85.1808 63.832C86.2878 63.832 87.118 64.8939 87.118 66.0619Z" fill="#FFCF2D"/>
<path d="M103.538 66.0619C103.538 67.3362 102.708 68.2918 101.601 68.2918C100.494 68.2918 99.6636 67.3362 99.6636 66.0619C99.6636 64.7877 100.494 63.832 101.601 63.832C102.708 63.832 103.538 64.8939 103.538 66.0619Z" fill="#FFCF2D"/>
<path d="M120.05 66.0619C120.05 67.3362 119.22 68.2918 118.113 68.2918C117.006 68.2918 116.176 67.3362 116.176 66.0619C116.176 64.7877 117.006 63.832 118.113 63.832C119.22 63.832 120.05 64.8939 120.05 66.0619Z" fill="#FFCF2D"/>
<path d="M136.562 66.0619C136.562 67.3361 135.732 68.2917 134.625 68.2917C133.518 68.2917 132.688 67.3361 132.688 66.0619C132.688 64.7877 133.518 63.832 134.625 63.832C135.64 63.832 136.562 64.8939 136.562 66.0619Z" fill="#FFCF2D"/>
<path d="M4.64927 81.8841C4.64927 83.1582 3.81905 84.1139 2.71209 84.1139C1.60512 84.1139 0.774902 83.1582 0.774902 81.8841C0.774902 80.6099 1.60512 79.6543 2.71209 79.6543C3.81905 79.6543 4.64927 80.6099 4.64927 81.8841Z" fill="#FFCF2D"/>
<path d="M21.1615 81.8841C21.1615 83.1583 20.3313 84.114 19.2243 84.114C18.1173 84.114 17.2871 83.1583 17.2871 81.8841C17.2871 80.6099 18.1173 79.6543 19.2243 79.6543C20.239 79.6543 21.1615 80.6099 21.1615 81.8841Z" fill="#FFCF2D"/>
<path d="M37.5814 81.8841C37.5814 83.1583 36.7512 84.114 35.6442 84.114C34.5373 84.114 33.707 83.1583 33.707 81.8841C33.707 80.6099 34.5373 79.6543 35.6442 79.6543C36.7512 79.6543 37.5814 80.6099 37.5814 81.8841Z" fill="#FFCF2D"/>
<path d="M52.1564 84.114C53.2263 84.114 54.0936 83.1157 54.0936 81.8841C54.0936 80.6526 53.2263 79.6543 52.1564 79.6543C51.0865 79.6543 50.2192 80.6526 50.2192 81.8841C50.2192 83.1157 51.0865 84.114 52.1564 84.114Z" fill="#FFCF2D"/>
<path d="M70.6058 81.8822C70.6058 83.1564 69.7756 84.112 68.6686 84.112C67.5617 84.112 66.7314 83.1564 66.7314 81.8822C66.7314 80.608 67.5617 79.6523 68.6686 79.6523C69.6833 79.6523 70.6058 80.608 70.6058 81.8822Z" fill="#FFCF2D"/>
<path d="M87.118 81.8841C87.118 83.1583 86.2878 84.114 85.1808 84.114C84.0739 84.114 83.2437 83.1583 83.2437 81.8841C83.2437 80.6099 84.0739 79.6543 85.1808 79.6543C86.2878 79.6543 87.118 80.6099 87.118 81.8841Z" fill="#FFCF2D"/>
<path d="M103.538 81.8841C103.538 83.1583 102.708 84.114 101.601 84.114C100.494 84.114 99.6636 83.1583 99.6636 81.8841C99.6636 80.6099 100.494 79.6543 101.601 79.6543C102.708 79.6543 103.538 80.6099 103.538 81.8841Z" fill="#FFCF2D"/>
<path d="M118.113 84.1139C119.183 84.1139 120.05 83.1156 120.05 81.8841C120.05 80.6526 119.183 79.6543 118.113 79.6543C117.043 79.6543 116.176 80.6526 116.176 81.8841C116.176 83.1156 117.043 84.1139 118.113 84.1139Z" fill="#FFCF2D"/>
<path d="M136.562 81.8841C136.562 83.1583 135.732 84.114 134.625 84.114C133.518 84.114 132.688 83.1583 132.688 81.8841C132.688 80.6099 133.518 79.6543 134.625 79.6543C135.64 79.6543 136.562 80.6099 136.562 81.8841Z" fill="#FFCF2D"/>
<path d="M4.64929 97.7046C4.64929 98.9789 3.81906 99.9347 2.71209 99.9347C1.60513 99.9347 0.774902 98.9789 0.774902 97.7046C0.774902 96.4303 1.60513 95.4746 2.71209 95.4746C3.81906 95.4746 4.64929 96.4303 4.64929 97.7046Z" fill="#FFCF2D"/>
<path d="M21.1615 97.7046C21.1615 98.9789 20.3313 99.9347 19.2243 99.9347C18.1173 99.9347 17.2871 98.9789 17.2871 97.7046C17.2871 96.4303 18.1173 95.4746 19.2243 95.4746C20.239 95.4746 21.1615 96.4303 21.1615 97.7046Z" fill="#FFCF2D"/>
<path d="M37.5814 97.7046C37.5814 98.9789 36.7512 99.9347 35.6442 99.9347C34.5373 99.9347 33.707 98.9789 33.707 97.7046C33.707 96.4303 34.5373 95.4746 35.6442 95.4746C36.7512 95.4746 37.5814 96.4303 37.5814 97.7046Z" fill="#FFCF2D"/>
<path d="M54.0936 97.7046C54.0936 98.9789 53.2634 99.9347 52.1564 99.9347C51.0495 99.9347 50.2192 98.9789 50.2192 97.7046C50.2192 96.4303 51.0495 95.4746 52.1564 95.4746C53.2634 95.4746 54.0936 96.4303 54.0936 97.7046Z" fill="#FFCF2D"/>
<path d="M70.6058 97.7046C70.6058 98.9789 69.7756 99.9347 68.6686 99.9347C67.5617 99.9347 66.7314 98.9789 66.7314 97.7046C66.7314 96.4303 67.5617 95.4746 68.6686 95.4746C69.6833 95.4746 70.6058 96.4303 70.6058 97.7046Z" fill="#FFCF2D"/>
<path d="M87.118 97.7046C87.118 98.9789 86.2878 99.9347 85.1808 99.9347C84.0739 99.9347 83.2437 98.9789 83.2437 97.7046C83.2437 96.4303 84.0739 95.4746 85.1808 95.4746C86.2878 95.4746 87.118 96.4303 87.118 97.7046Z" fill="#FFCF2D"/>
<path d="M103.538 97.7046C103.538 98.9789 102.708 99.9347 101.601 99.9347C100.494 99.9347 99.6636 98.9789 99.6636 97.7046C99.6636 96.4303 100.494 95.4746 101.601 95.4746C102.708 95.4746 103.538 96.4303 103.538 97.7046Z" fill="#FFCF2D"/>
<path d="M120.05 97.7046C120.05 98.9789 119.22 99.9347 118.113 99.9347C117.006 99.9347 116.176 98.9789 116.176 97.7046C116.176 96.4303 117.006 95.4746 118.113 95.4746C119.22 95.4746 120.05 96.4303 120.05 97.7046Z" fill="#FFCF2D"/>
<path d="M136.562 97.7046C136.562 98.9789 135.732 99.9347 134.625 99.9347C133.518 99.9347 132.688 98.9789 132.688 97.7046C132.688 96.4303 133.518 95.4746 134.625 95.4746C135.64 95.4746 136.562 96.4303 136.562 97.7046Z" fill="#FFCF2D"/>
<path d="M4.64927 113.421C4.64927 114.696 3.81905 115.651 2.71209 115.651C1.60512 115.651 0.774902 114.696 0.774902 113.421C0.774902 112.147 1.60512 111.191 2.71209 111.191C3.81905 111.191 4.64927 112.253 4.64927 113.421Z" fill="#FFCF2D"/>
<path d="M21.1615 113.421C21.1615 114.696 20.3313 115.651 19.2243 115.651C18.1173 115.651 17.2871 114.696 17.2871 113.421C17.2871 112.147 18.1173 111.191 19.2243 111.191C20.239 111.191 21.1615 112.253 21.1615 113.421Z" fill="#FFCF2D"/>
<path d="M37.5814 113.421C37.5814 114.696 36.7512 115.651 35.6442 115.651C34.5373 115.651 33.707 114.696 33.707 113.421C33.707 112.147 34.5373 111.191 35.6442 111.191C36.7512 111.191 37.5814 112.253 37.5814 113.421Z" fill="#FFCF2D"/>
<path d="M54.0936 113.421C54.0936 114.696 53.2634 115.651 52.1564 115.651C51.0495 115.651 50.2192 114.696 50.2192 113.421C50.2192 112.147 51.0495 111.191 52.1564 111.191C53.2634 111.191 54.0936 112.253 54.0936 113.421Z" fill="#FFCF2D"/>
<path d="M70.6058 113.421C70.6058 114.696 69.7756 115.651 68.6686 115.651C67.5617 115.651 66.7314 114.696 66.7314 113.421C66.7314 112.147 67.5617 111.191 68.6686 111.191C69.6833 111.191 70.6058 112.253 70.6058 113.421Z" fill="#FFCF2D"/>
<path d="M87.118 113.421C87.118 114.696 86.2878 115.651 85.1808 115.651C84.0739 115.651 83.2437 114.696 83.2437 113.421C83.2437 112.147 84.0739 111.191 85.1808 111.191C86.2878 111.191 87.118 112.253 87.118 113.421Z" fill="#FFCF2D"/>
<path d="M103.538 113.421C103.538 114.696 102.708 115.651 101.601 115.651C100.494 115.651 99.6636 114.696 99.6636 113.421C99.6636 112.147 100.494 111.191 101.601 111.191C102.708 111.191 103.538 112.253 103.538 113.421Z" fill="#FFCF2D"/>
<path d="M120.05 113.421C120.05 114.696 119.22 115.651 118.113 115.651C117.006 115.651 116.176 114.696 116.176 113.421C116.176 112.147 117.006 111.191 118.113 111.191C119.22 111.191 120.05 112.253 120.05 113.421Z" fill="#FFCF2D"/>
<path d="M136.562 113.421C136.562 114.696 135.732 115.651 134.625 115.651C133.518 115.651 132.688 114.696 132.688 113.421C132.688 112.147 133.518 111.191 134.625 111.191C135.64 111.191 136.562 112.253 136.562 113.421Z" fill="#FFCF2D"/>
</svg>
