<svg width="605" height="548" viewBox="0 0 605 548" fill="none" xmlns="http://www.w3.org/2000/svg">
<path d="M379.681 15.8301L421.74 56.0409L464.012 282.716H67.499L379.681 15.8301Z" fill="#FFCF2D"/>
<path d="M422.101 55.7244L379.915 15.3872L386.97 8.12401C397.363 -2.5708 416.087 -1.34974 426.883 8.92402C437.68 19.2188 439.571 37.7663 429.178 48.4612L422.101 55.7244Z" fill="white"/>
<path d="M422.123 56.6087L379.022 15.4084L386.524 7.68205C391.582 2.46096 398.787 -0.254848 406.821 0.0188385C414.514 0.292525 421.995 3.36623 427.351 8.46101C432.706 13.5558 436.086 20.8611 436.638 28.4822C437.212 36.4191 434.725 43.6613 429.667 48.8824L422.123 56.6087ZM380.807 15.3663L422.08 54.8193L428.711 48.0192C433.535 43.0718 435.873 36.1665 435.342 28.5875C434.81 21.2611 431.58 14.2716 426.437 9.38733C421.294 4.50308 414.132 1.55569 406.757 1.30306C399.106 1.02937 392.241 3.61887 387.438 8.56627L380.807 15.3663Z" fill="#FFCF2D"/>
<path d="M429.157 49.0927C428.987 49.0927 428.839 49.0296 428.711 48.9243L386.503 8.58716C386.248 8.33452 386.248 7.95557 386.482 7.70294C386.737 7.4503 387.141 7.4503 387.374 7.68188L429.582 48.019C429.837 48.2717 429.838 48.6506 429.604 48.9033C429.497 49.0296 429.327 49.0927 429.157 49.0927Z" fill="#FFCF2D"/>
<path d="M510.683 281.621C510.598 281.621 510.513 281.6 510.428 281.558C510.109 281.41 509.96 281.031 510.109 280.715L569.298 149.935L453.576 10.3976V10.3765C451.387 7.42912 448.178 5.53437 444.523 5.00805C440.867 4.48173 437.233 5.42911 434.3 7.66071L429.582 11.2397C429.306 11.4502 428.902 11.4081 428.689 11.1134C428.477 10.8397 428.519 10.4397 428.817 10.2291L433.535 6.65017C436.744 4.2291 440.719 3.19751 444.714 3.76594C448.71 4.33436 452.216 6.39753 454.597 9.61861L570.785 149.746L570.615 150.104L511.256 281.242C511.15 281.473 510.916 281.621 510.683 281.621Z" fill="#3FB1B5"/>
<path d="M568.15 156.989C571.742 156.989 574.654 154.105 574.654 150.547C574.654 146.989 571.742 144.104 568.15 144.104C564.559 144.104 561.647 146.989 561.647 150.547C561.647 154.105 564.559 156.989 568.15 156.989Z" fill="white"/>
<path d="M568.15 157.62C564.218 157.62 561.009 154.441 561.009 150.546C561.009 146.652 564.218 143.473 568.15 143.473C572.082 143.473 575.291 146.652 575.291 150.546C575.291 154.441 572.082 157.62 568.15 157.62ZM568.15 144.736C564.92 144.736 562.284 147.346 562.284 150.546C562.284 153.746 564.92 156.357 568.15 156.357C571.381 156.357 574.016 153.746 574.016 150.546C574.016 147.346 571.381 144.736 568.15 144.736Z" fill="#FFCF2D"/>
<path d="M494.19 266.337H525.878C534.995 266.337 542.37 273.663 542.37 282.674V283.137H477.677V282.674C477.698 273.663 485.073 266.337 494.19 266.337Z" fill="white"/>
<path d="M543.008 283.768H477.04V282.674C477.061 273.326 484.754 265.705 494.191 265.705H525.878C535.315 265.705 543.008 273.326 543.008 282.674V283.768ZM478.315 282.505H541.733C541.648 273.916 534.571 266.968 525.878 266.968H494.191C485.519 266.968 478.421 273.916 478.315 282.505Z" fill="#FFCF2D"/>
<path d="M340.682 235.326H140.077C132.532 235.326 126.433 229.284 126.433 221.81V82.8196C126.433 75.3459 132.532 69.3037 140.077 69.3037H340.682C348.226 69.3037 354.326 75.3459 354.326 82.8196V221.789C354.347 229.263 348.226 235.326 340.682 235.326Z" fill="white"/>
<path d="M340.682 235.957H140.077C132.192 235.957 125.795 229.62 125.795 221.81V82.8194C125.795 75.0088 132.192 68.6719 140.077 68.6719H340.682C348.566 68.6719 354.964 75.0088 354.964 82.8194V221.789C354.985 225.557 353.497 229.115 350.798 231.789C348.099 234.484 344.507 235.957 340.682 235.957ZM140.077 69.935C132.915 69.935 127.07 75.7246 127.07 82.8194V221.81C127.07 228.905 132.915 234.694 140.077 234.694H340.682C344.167 234.694 347.44 233.347 349.905 230.905C352.349 228.463 353.71 225.22 353.688 221.789V82.8194C353.688 75.7246 347.844 69.935 340.682 69.935H140.077Z" fill="#3FB1B5"/>
<path d="M340.81 222.399H142.139C139.185 222.399 136.804 220.02 136.804 217.115V84.1456C136.804 81.2192 139.206 78.8613 142.139 78.8613H340.81C343.764 78.8613 346.144 81.2403 346.144 84.1456V217.094C346.165 220.02 343.764 222.399 340.81 222.399Z" fill="#66B0F0"/>
<path d="M340.809 223.031H142.139C138.844 223.031 136.167 220.378 136.167 217.115V84.1453C136.167 80.8821 138.844 78.2295 142.139 78.2295H340.809C344.103 78.2295 346.781 80.8821 346.781 84.1453V217.094C346.803 218.673 346.186 220.167 345.06 221.283C343.912 222.399 342.425 223.031 340.809 223.031ZM142.139 79.4927C139.546 79.4927 137.442 81.5769 137.442 84.1453V217.115C137.442 219.683 139.546 221.767 142.139 221.767H340.809C342.063 221.767 343.253 221.283 344.146 220.399C345.039 219.515 345.506 218.357 345.506 217.115V84.1453C345.506 81.5769 343.402 79.4927 340.809 79.4927H142.139Z" fill="#66B0F0"/>
<path d="M149.258 91.9144H146.113C144.731 91.9144 143.605 90.7986 143.605 89.4301V86.3143C143.605 84.9459 144.731 83.8301 146.113 83.8301H149.258C150.64 83.8301 151.766 84.9459 151.766 86.3143V89.4301C151.745 90.8196 150.64 91.9144 149.258 91.9144ZM146.113 85.0932C145.433 85.0932 144.88 85.6406 144.88 86.3143V89.4301C144.88 90.1038 145.433 90.6512 146.113 90.6512H149.258C149.938 90.6512 150.47 90.1038 150.491 89.4091V86.3143C150.491 85.6406 149.938 85.0932 149.258 85.0932H146.113Z" fill="white"/>
<path d="M163.561 91.9144H160.416C159.035 91.9144 157.908 90.7986 157.908 89.4301V86.3143C157.908 84.9459 159.035 83.8301 160.416 83.8301H163.561C164.943 83.8301 166.069 84.9459 166.069 86.3143V89.4301C166.069 90.7986 164.943 91.9144 163.561 91.9144ZM160.416 85.0932C159.736 85.0932 159.183 85.6406 159.183 86.3143V89.4301C159.183 90.1038 159.736 90.6512 160.416 90.6512H163.561C164.242 90.6512 164.794 90.1038 164.794 89.4301V86.3143C164.794 85.6406 164.242 85.0932 163.561 85.0932H160.416Z" fill="white"/>
<path d="M177.865 91.9144H174.719C173.338 91.9144 172.211 90.7986 172.211 89.4301V86.3143C172.211 84.9459 173.338 83.8301 174.719 83.8301H177.865C179.246 83.8301 180.372 84.9459 180.372 86.3143V89.4301C180.372 90.7986 179.246 91.9144 177.865 91.9144ZM174.719 85.0932C174.039 85.0932 173.487 85.6406 173.487 86.3143V89.4301C173.487 90.1038 174.039 90.6512 174.719 90.6512H177.865C178.566 90.6512 179.097 90.1249 179.097 89.4301V86.3143C179.097 85.6406 178.545 85.0932 177.865 85.0932H174.719Z" fill="white"/>
<path d="M282.725 282.716H204.855L220.136 235.326H267.423L282.725 282.716Z" fill="white"/>
<path d="M283.596 283.347H203.983L219.668 234.694H267.89L283.596 283.347ZM205.726 282.084H281.854L266.955 235.958H220.603L205.726 282.084Z" fill="#3FB1B5"/>
<path d="M210.976 263.747L220.136 235.326H267.423L210.976 263.747Z" fill="#3FB1B5"/>
<path d="M329.247 123.093H291.396C287.507 123.093 284.34 119.956 284.34 116.104V91.8929C284.34 88.0402 287.507 84.9033 291.396 84.9033H329.247C333.137 84.9033 336.303 88.0402 336.303 91.8929V116.104C336.303 119.956 333.137 123.093 329.247 123.093ZM291.396 86.1665C288.208 86.1665 285.615 88.7349 285.615 91.8929V116.104C285.615 119.261 288.208 121.83 291.396 121.83H329.247C332.435 121.83 335.028 119.261 335.028 116.104V91.8929C335.028 88.7349 332.435 86.1665 329.247 86.1665H291.396Z" fill="white"/>
<path d="M324.678 94.7983H295.795C295.434 94.7983 295.158 94.5246 295.158 94.1667C295.158 93.8088 295.434 93.5352 295.795 93.5352H324.678C325.039 93.5352 325.315 93.8088 325.315 94.1667C325.315 94.5246 325.039 94.7983 324.678 94.7983Z" fill="white"/>
<path d="M324.678 101.325H295.795C295.434 101.325 295.158 101.051 295.158 100.693C295.158 100.335 295.434 100.062 295.795 100.062H324.678C325.039 100.062 325.315 100.335 325.315 100.693C325.315 101.051 325.039 101.325 324.678 101.325Z" fill="white"/>
<path d="M324.678 107.851H295.795C295.434 107.851 295.158 107.577 295.158 107.219C295.158 106.862 295.434 106.588 295.795 106.588H324.678C325.039 106.588 325.315 106.862 325.315 107.219C325.315 107.577 325.039 107.851 324.678 107.851Z" fill="white"/>
<path d="M324.678 114.377H295.795C295.434 114.377 295.158 114.104 295.158 113.746C295.158 113.388 295.434 113.114 295.795 113.114H324.678C325.039 113.114 325.315 113.388 325.315 113.746C325.315 114.104 325.039 114.377 324.678 114.377Z" fill="white"/>
<path d="M339.704 222.399H189.256L180.436 234.925C170.468 249.073 149.407 249.283 139.163 235.325L85.436 162.125C87.6888 164.904 97.9964 161.809 107.815 155.409C117.783 148.904 124.222 140.714 122.203 137.683L159.459 184.715L170.872 164.757C173.996 159.472 179.182 155.683 185.218 154.293L224.047 146.146H257.52L294.414 154.209C300.833 155.662 306.273 159.809 309.355 165.556L339.704 222.399Z" fill="white"/>
<path d="M159.65 246.295C151.256 246.295 143.605 242.442 138.653 235.684L84.9258 162.483L85.9459 161.725C87.7524 163.936 97.3374 161.494 107.475 154.883C112.193 151.81 116.295 148.252 119.015 144.841C121.48 141.767 122.479 139.22 121.672 138.02L122.713 137.283L159.374 183.578L170.319 164.441C173.529 159.01 178.905 155.094 185.069 153.683L223.983 145.515H257.583L257.647 145.536L294.542 153.599C301.13 155.094 306.741 159.347 309.907 165.262L340.745 223.031H189.574L180.946 235.284C176.079 242.189 168.407 246.21 159.884 246.295C159.82 246.295 159.735 246.295 159.65 246.295ZM87.3911 163.704L139.694 234.947C144.455 241.431 151.808 245.116 159.905 245.031C168.003 244.947 175.292 241.137 179.926 234.568L188.937 221.768H338.662L308.802 165.852C305.806 160.252 300.514 156.231 294.287 154.82L257.456 146.778H224.11L185.345 154.904C179.522 156.252 174.442 159.957 171.424 165.073L159.544 185.852L123.117 139.873C122.819 141.452 121.778 143.431 119.993 145.641C117.187 149.136 112.979 152.799 108.155 155.936C101.418 160.315 93.3206 163.768 88.4962 163.768C88.1137 163.768 87.7311 163.747 87.3911 163.704Z" fill="#3FB1B5"/>
<path d="M298.41 222.168C298.176 222.168 297.964 222.042 297.836 221.832L287.146 200.926C286.997 200.61 287.104 200.231 287.423 200.084C287.741 199.937 288.124 200.042 288.273 200.358L298.963 221.263C299.112 221.579 299.005 221.958 298.687 222.105C298.601 222.147 298.516 222.168 298.41 222.168Z" fill="#3FB1B5"/>
<path d="M188.406 224.126C188.299 224.126 188.214 224.105 188.108 224.063C187.789 223.916 187.662 223.516 187.832 223.221L198.416 202.526C198.565 202.21 198.968 202.084 199.266 202.253C199.585 202.4 199.712 202.8 199.542 203.095L188.958 223.79C188.852 224 188.639 224.126 188.406 224.126Z" fill="#3FB1B5"/>
<path d="M169.214 197.81C169.023 197.81 168.832 197.726 168.704 197.558L144.455 166.842C144.242 166.568 144.285 166.168 144.561 165.957C144.837 165.747 145.241 165.789 145.454 166.063L169.703 196.779C169.915 197.052 169.873 197.452 169.597 197.663C169.49 197.768 169.342 197.81 169.214 197.81Z" fill="#3FB1B5"/>
<path d="M253.8 167.915L244.47 156.652C244.236 156.378 244.279 155.978 244.555 155.768C244.831 155.536 245.235 155.578 245.448 155.852L253.97 166.104L273.459 149.725C273.735 149.494 274.139 149.536 274.352 149.789C274.585 150.062 274.543 150.462 274.288 150.673L253.8 167.915Z" fill="#3FB1B5"/>
<path d="M229.572 168.315L207.108 150.694C206.832 150.483 206.789 150.083 207.002 149.81C207.214 149.536 207.618 149.494 207.894 149.704L229.338 166.526L237.606 156.062C237.818 155.789 238.222 155.747 238.498 155.957C238.774 156.168 238.817 156.568 238.604 156.841L229.572 168.315Z" fill="#3FB1B5"/>
<path d="M95.6585 173.494C93.6395 173.494 92.5769 172.884 92.0455 172.21C91.833 171.936 91.8755 171.536 92.1518 171.326C92.4281 171.115 92.8319 171.157 93.0444 171.431C93.937 172.547 96.8487 172.484 100.823 171.305C105.052 170.041 110.153 167.557 114.786 164.505C119.525 161.389 123.648 157.789 126.39 154.336C128.877 151.22 129.875 148.652 129.068 147.431C128.877 147.136 128.962 146.757 129.259 146.546C129.557 146.357 129.939 146.441 130.152 146.736C131.299 148.483 130.322 151.452 127.41 155.115C124.584 158.652 120.354 162.357 115.509 165.536C110.705 168.694 105.626 171.178 101.205 172.505C98.8039 173.22 96.9974 173.494 95.6585 173.494Z" fill="#3FB1B5"/>
<path d="M122.926 153.051C121.247 153.051 119.887 151.704 119.887 150.041C119.887 148.378 121.247 147.03 122.926 147.03C124.605 147.03 125.965 148.378 125.965 150.041C125.965 151.704 124.605 153.051 122.926 153.051ZM122.926 148.293C121.948 148.293 121.162 149.072 121.162 150.041C121.162 151.009 121.948 151.788 122.926 151.788C123.903 151.788 124.69 151.009 124.69 150.041C124.69 149.072 123.903 148.293 122.926 148.293Z" fill="#3FB1B5"/>
<path d="M241.516 168C239.837 168 238.477 166.652 238.477 164.989C238.477 163.326 239.837 161.979 241.516 161.979C243.195 161.979 244.555 163.326 244.555 164.989C244.555 166.652 243.195 168 241.516 168ZM241.516 163.242C240.539 163.242 239.752 164.021 239.752 164.989C239.752 165.958 240.539 166.736 241.516 166.736C242.494 166.736 243.28 165.958 243.28 164.989C243.28 164.021 242.494 163.242 241.516 163.242Z" fill="#3FB1B5"/>
<path d="M241.516 187.157C239.837 187.157 238.477 185.809 238.477 184.146C238.477 182.483 239.837 181.136 241.516 181.136C243.195 181.136 244.555 182.483 244.555 184.146C244.555 185.809 243.195 187.157 241.516 187.157ZM241.516 182.399C240.539 182.399 239.752 183.178 239.752 184.146C239.752 185.115 240.539 185.894 241.516 185.894C242.494 185.894 243.28 185.115 243.28 184.146C243.28 183.178 242.494 182.399 241.516 182.399Z" fill="#3FB1B5"/>
<path d="M179.671 235.936L189.256 222.399V235.936H179.671Z" fill="#3FB1B5"/>
<path d="M107.581 154.778C97.7623 161.178 87.4547 164.273 85.2019 161.494C85.1594 161.452 85.1382 161.41 85.0957 161.347C84.6281 160.652 84.6706 159.705 85.0957 158.547C86.5621 154.736 92.6191 148.841 100.313 143.831C106.433 139.831 112.469 137.052 116.656 136.189C119.079 135.704 120.885 135.852 121.757 136.778L121.969 137.031C123.967 140.062 117.549 148.273 107.581 154.778Z" fill="#FE5244"/>
<path d="M107.581 154.778C101.992 158.42 96.2322 161.01 91.8967 162.02L72.4929 134.904C69.7938 131.115 70.6864 125.873 74.5332 123.199L92.0029 111.03L82.0991 94.3355C80.654 91.9145 81.4828 88.7776 83.9481 87.3671C84.7557 86.9039 85.6271 86.6934 86.4984 86.6934C88.1774 86.6934 89.8351 87.5144 90.8128 89.0302L121.778 136.736L121.991 137.073C123.967 140.062 117.549 148.273 107.581 154.778Z" fill="#E57281"/>
<path d="M97.4862 135.22C97.2099 135.22 96.9336 135.199 96.6573 135.136C95.5947 134.925 94.6808 134.294 94.107 133.409L83.8844 118.251C83.6931 117.957 83.7781 117.578 84.0544 117.367C84.352 117.178 84.7345 117.262 84.947 117.536L95.1696 132.694C95.5734 133.304 96.1897 133.725 96.9123 133.873C97.6349 134.02 98.3788 133.873 98.9951 133.473L101.397 131.915C102.672 131.094 103.033 129.409 102.226 128.146L91.4079 111.536C91.2166 111.241 91.3016 110.862 91.5991 110.672C91.8967 110.483 92.2793 110.567 92.4705 110.862L103.288 127.473C104.478 129.325 103.926 131.788 102.077 132.967L99.6752 134.525C99.0376 134.988 98.2725 135.22 97.4862 135.22Z" fill="#9A3B82"/>
<path d="M89.5592 140.251C88.2415 140.251 86.9451 139.62 86.1588 138.462C85.9675 138.167 86.0525 137.788 86.3501 137.578C86.6476 137.388 87.0301 137.473 87.2427 137.767C88.0715 139.009 89.7717 139.367 91.0469 138.567L93.2359 137.199C93.8523 136.799 94.2986 136.188 94.4473 135.451C94.5961 134.715 94.4686 133.978 94.0648 133.367C93.8735 133.072 93.9585 132.694 94.2561 132.483C94.5536 132.294 94.9362 132.378 95.1487 132.672C95.7438 133.578 95.9563 134.651 95.7225 135.725C95.4887 136.778 94.8511 137.683 93.9373 138.273L91.7483 139.641C91.0682 140.041 90.3031 140.251 89.5592 140.251Z" fill="#9A3B82"/>
<path d="M81.7806 144.967C80.5054 144.967 79.2515 144.378 78.4652 143.262L72.6632 135.156C72.4506 134.862 72.5357 134.483 72.812 134.272C73.0882 134.062 73.492 134.146 73.7046 134.42L79.5066 142.525C80.3779 143.725 82.0144 144.041 83.2471 143.262L83.2895 143.241L85.3086 142.125C85.9461 141.725 86.3712 141.114 86.5412 140.399C86.7113 139.662 86.5625 138.925 86.1587 138.293L76.1486 123.556C75.9574 123.262 76.0211 122.883 76.3187 122.672C76.6162 122.483 76.9987 122.546 77.2113 122.841L87.2213 137.578C87.8376 138.504 88.0289 139.599 87.7952 140.651C87.5614 141.704 86.9238 142.609 85.9887 143.178L85.9674 143.199L83.9484 144.314C83.247 144.778 82.5032 144.967 81.7806 144.967Z" fill="#9A3B82"/>
<path d="M114.552 125.62L109.472 117.809C107.793 115.22 104.287 114.504 101.715 116.23L89.1123 124.693C89.1123 124.693 92.7678 131.199 101.651 126.041L104.627 130.736C98.5485 134.546 96.8058 142.567 100.759 148.525L114.552 125.62Z" fill="#E57281"/>
<path d="M100.759 149.157C100.546 149.157 100.355 149.051 100.228 148.862C98.2298 145.83 97.5284 142.209 98.3148 138.672C99.0374 135.346 100.971 132.483 103.755 130.546L101.439 126.883C98.3785 128.546 95.5944 129.03 93.1291 128.378C90.0049 127.535 88.6023 125.093 88.5385 125.009L88.2622 124.504L100.674 115.914C102.077 114.988 103.734 114.651 105.371 114.988C107.007 115.325 108.41 116.272 109.324 117.683L114.403 125.493C114.594 125.788 114.509 126.167 114.212 126.357C113.914 126.546 113.532 126.462 113.34 126.167L108.261 118.356C107.538 117.241 106.433 116.483 105.116 116.23C103.819 115.956 102.48 116.23 101.396 116.967L89.9837 124.862C90.4937 125.514 91.6414 126.693 93.4691 127.178C95.7219 127.788 98.3573 127.22 101.311 125.514L101.843 125.199L105.477 130.946L104.946 131.283C102.162 133.03 100.228 135.767 99.5262 138.967C98.8248 142.167 99.4412 145.451 101.269 148.188C101.46 148.483 101.375 148.862 101.078 149.072C100.993 149.115 100.886 149.157 100.759 149.157Z" fill="#9A3B82"/>
<path d="M107.581 154.779C101.992 158.421 96.2322 161.01 91.8966 162.021L87.0723 155.284C89.7714 151.789 94.5957 147.579 100.313 143.852C106.434 139.852 112.469 137.073 116.656 136.21C119.079 135.726 120.885 135.873 121.757 136.8L121.969 137.052C121.991 137.094 122.012 137.115 122.033 137.157C122.054 137.179 122.054 137.2 122.076 137.242C122.097 137.284 122.118 137.305 122.139 137.347C123.584 140.568 117.23 148.463 107.581 154.779Z" fill="#9A3B82"/>
<path d="M257.498 127.62V146.126C257.498 151.494 249.975 155.831 240.73 155.831C231.464 155.831 223.961 151.494 223.961 146.126V127.62H257.498Z" fill="#E57281"/>
<path d="M228.87 152.989C225.831 151.241 223.939 148.799 223.939 146.126V127.62H257.498V132.757C257.498 138.083 254.225 142.862 249.252 144.862L228.87 152.989Z" fill="#9A3B82"/>
<path d="M266.849 126.525V126.841C266.849 130.041 264.235 132.631 261.004 132.631H257.158C255.861 137.81 251.143 141.662 245.49 141.662H235.969C230.337 141.662 225.597 137.831 224.322 132.631H220.475C217.245 132.631 214.631 130.041 214.631 126.841V126.525C214.631 123.325 217.245 120.736 220.475 120.736H223.961V116.167C223.961 111.283 227.595 107.241 232.334 106.567C233.376 108.294 236.521 112.42 242.94 112.188C245.957 112.083 248.763 111.515 251.079 110.841C253.863 110.041 256.648 111.725 257.349 114.357C257.455 114.946 257.519 115.536 257.519 116.146V120.715H261.004C264.214 120.715 266.849 123.325 266.849 126.525Z" fill="#E57281"/>
<path d="M260.175 120.715H257.497V115.641C257.497 115.199 257.434 114.757 257.327 114.357C256.626 111.725 253.842 110.041 251.058 110.841C248.741 111.515 245.957 112.083 242.918 112.189C236.5 112.42 233.354 108.294 232.313 106.568C227.573 107.241 223.939 111.283 223.939 116.168V120.736H220.603C220.603 120.736 216.777 107.031 219.646 103.157C222.473 99.3464 225.873 101.01 225.873 101.01C225.873 101.01 223.833 89.599 235.224 89.8095C246.595 90.02 261.387 103.094 262.47 105.494C264.171 109.178 260.175 120.715 260.175 120.715Z" fill="#9A3B82"/>
<path d="M258.794 128.125C258.496 128.125 258.263 127.893 258.263 127.598C258.263 125.072 260.345 123.009 262.896 123.009C263.193 123.009 263.427 123.24 263.427 123.535C263.427 123.83 263.193 124.061 262.896 124.061C260.919 124.061 259.325 125.64 259.325 127.598C259.325 127.893 259.092 128.125 258.794 128.125Z" fill="#9A3B82"/>
<path d="M222.707 128.125C222.409 128.125 222.176 127.893 222.176 127.598C222.176 125.64 220.582 124.061 218.605 124.061C218.308 124.061 218.074 123.83 218.074 123.535C218.074 123.24 218.308 123.009 218.605 123.009C221.155 123.009 223.238 125.072 223.238 127.598C223.238 127.893 223.004 128.125 222.707 128.125Z" fill="#9A3B82"/>
<path d="M252.142 116.694C252.036 116.694 251.929 116.651 251.823 116.588C251.717 116.504 248.975 114.588 245.469 116.041C245.192 116.146 244.895 116.02 244.767 115.746C244.661 115.472 244.789 115.178 245.065 115.051C249.145 113.388 252.312 115.62 252.44 115.725C252.673 115.894 252.737 116.23 252.546 116.462C252.461 116.609 252.312 116.694 252.142 116.694Z" fill="#9A3B82"/>
<path d="M229.104 116.694C228.934 116.694 228.785 116.61 228.679 116.483C228.509 116.252 228.552 115.915 228.785 115.747C228.913 115.641 232.101 113.41 236.16 115.073C236.436 115.178 236.564 115.494 236.458 115.768C236.351 116.041 236.033 116.168 235.756 116.062C232.228 114.61 229.444 116.589 229.402 116.61C229.317 116.652 229.21 116.694 229.104 116.694Z" fill="#9A3B82"/>
<path d="M242.069 134.42C241.24 134.42 240.283 134.251 239.199 133.851C238.923 133.746 238.774 133.451 238.881 133.177C238.987 132.904 239.284 132.756 239.561 132.862C244.024 134.504 245.49 131.598 245.554 131.472C245.682 131.219 246 131.093 246.255 131.219C246.51 131.346 246.638 131.662 246.51 131.914C246.489 131.956 245.278 134.42 242.069 134.42Z" fill="#9A3B82"/>
<path d="M240.559 130.462C240.07 130.462 239.539 130.462 239.093 130.42C238.795 130.399 238.583 130.147 238.604 129.852C238.625 129.557 238.88 129.347 239.178 129.368C240.432 129.452 242.366 129.368 242.387 129.368C242.685 129.347 242.918 129.578 242.94 129.873C242.961 130.168 242.727 130.399 242.43 130.42C242.387 130.42 241.516 130.462 240.559 130.462Z" fill="#9A3B82"/>
<path d="M248.72 124.946C249.307 124.946 249.783 124.154 249.783 123.178C249.783 122.201 249.307 121.409 248.72 121.409C248.133 121.409 247.658 122.201 247.658 123.178C247.658 124.154 248.133 124.946 248.72 124.946Z" fill="#9A3B82"/>
<path d="M233.482 124.946C234.069 124.946 234.545 124.154 234.545 123.178C234.545 122.201 234.069 121.409 233.482 121.409C232.895 121.409 232.419 122.201 232.419 123.178C232.419 124.154 232.895 124.946 233.482 124.946Z" fill="#9A3B82"/>
<path d="M236.011 129.663H229.316C227.744 129.663 226.447 128.378 226.447 126.82V120.189C226.447 118.631 227.744 117.347 229.316 117.347H236.011C237.584 117.347 238.88 118.631 238.88 120.189V126.82C238.901 127.557 238.604 128.273 238.073 128.799C237.52 129.368 236.797 129.663 236.011 129.663ZM229.316 118.399C228.318 118.399 227.51 119.199 227.51 120.189V126.82C227.51 127.81 228.318 128.61 229.316 128.61H236.011C236.5 128.61 236.967 128.42 237.307 128.063C237.647 127.726 237.817 127.284 237.817 126.82V120.189C237.817 119.199 237.01 118.399 236.011 118.399H229.316Z" fill="white"/>
<path d="M252.397 129.663H245.702C244.129 129.663 242.833 128.378 242.833 126.82V120.189C242.833 118.631 244.129 117.347 245.702 117.347H252.397C253.969 117.347 255.266 118.631 255.266 120.189V126.82C255.266 128.378 253.969 129.663 252.397 129.663ZM245.702 118.399C244.703 118.399 243.896 119.199 243.896 120.189V126.82C243.896 127.81 244.703 128.61 245.702 128.61H252.397C253.396 128.61 254.203 127.81 254.203 126.82V120.189C254.203 119.199 253.396 118.399 252.397 118.399H245.702Z" fill="white"/>
<path d="M243.365 121.726H238.37V122.778H243.365V121.726Z" fill="white"/>
<path d="M254.162 214.863H230.933C228.467 214.863 226.47 212.884 226.47 210.442V198.21C226.47 195.768 228.467 193.789 230.933 193.789H254.162C256.627 193.789 258.625 195.768 258.625 198.21V210.442C258.625 212.884 256.627 214.863 254.162 214.863ZM230.933 195.052C229.169 195.052 227.745 196.463 227.745 198.21V210.442C227.745 212.189 229.169 213.6 230.933 213.6H254.162C255.926 213.6 257.35 212.189 257.35 210.442V198.21C257.35 196.463 255.926 195.052 254.162 195.052H230.933Z" fill="#66B0F0"/>
<path d="M243.132 209.306H235.268C234.014 209.306 232.994 208.295 232.994 207.053V201.6C232.994 200.358 234.014 199.348 235.268 199.348H243.132C244.386 199.348 245.406 200.358 245.406 201.6V207.053C245.406 208.295 244.386 209.306 243.132 209.306Z" fill="#66B0F0"/>
<path d="M250.783 209.158L248.36 207.558C247.701 207.116 247.297 206.358 247.297 205.537V203.137C247.297 202.316 247.701 201.558 248.36 201.116L250.783 199.516C251.357 199.137 252.1 199.558 252.1 200.274V208.422C252.122 209.116 251.357 209.537 250.783 209.158Z" fill="#66B0F0"/>
<path d="M564.835 283.769H0.637583C0.276286 283.769 0 283.495 0 283.137C0 282.78 0.276286 282.506 0.637583 282.506H564.835C565.196 282.506 565.472 282.78 565.472 283.137C565.472 283.495 565.196 283.769 564.835 283.769Z" fill="#3FB1B5"/>
<path d="M182.285 286.822V546.74H167.472V497.266C167.472 492.655 163.689 488.908 159.035 488.908H53.0049C48.3506 488.908 44.5676 492.655 44.5676 497.266V546.74H29.7544V286.822H182.285Z" fill="white"/>
<path d="M182.923 547.371H166.835V497.266C166.835 493.013 163.328 489.539 159.035 489.539H53.0048C48.7118 489.539 45.2051 493.013 45.2051 497.266V547.371H29.1167V286.19H182.923V547.371ZM168.11 546.108H181.648V287.454H30.3919V546.108H43.9299V497.266C43.9299 492.318 48.0104 488.276 53.0048 488.276H159.035C164.029 488.276 168.11 492.318 168.11 497.266V546.108Z" fill="#3FB1B5"/>
<path d="M182.732 286.822V355.791L29.7544 480.571L29.7757 286.822H182.732Z" fill="#D0F0E4"/>
<path d="M159.481 362.297H52.5798C47.8192 362.297 43.9512 358.465 43.9512 353.749V306.612C43.9512 301.896 47.8192 298.064 52.5798 298.064H159.481C164.242 298.064 168.11 301.896 168.11 306.612V353.749C168.11 358.465 164.242 362.297 159.481 362.297ZM52.5798 299.328C48.5205 299.328 45.2263 302.591 45.2263 306.612V353.749C45.2263 357.77 48.5205 361.033 52.5798 361.033H159.481C163.54 361.033 166.835 357.77 166.835 353.749V306.612C166.835 302.591 163.54 299.328 159.481 299.328H52.5798Z" fill="#3FB1B5"/>
<path d="M133.212 397.37H80.5904L78.4014 382.443H131.044L133.212 397.37Z" fill="#FFCF2D"/>
<path d="M161.288 373.834C154.721 373.834 149.407 379.097 149.407 385.602V397.371H104.628V385.602C104.628 379.097 109.941 373.834 116.508 373.834H161.288Z" fill="white"/>
<path d="M150.045 398.002H103.99V385.602C103.99 378.76 109.601 373.202 116.508 373.202H161.288V374.465C155.082 374.465 150.045 379.455 150.045 385.602V398.002ZM105.265 396.739H148.77V385.602C148.77 380.718 151.639 376.486 155.783 374.465H116.508C110.302 374.465 105.265 379.455 105.265 385.602V396.739Z" fill="#3FB1B5"/>
<path d="M172.446 382.445H127.666C126.285 377.476 121.673 373.834 116.211 373.834H160.99C166.452 373.834 171.043 377.476 172.446 382.445Z" fill="white"/>
<path d="M173.296 383.076H127.199L127.071 382.613C125.732 377.813 121.269 374.465 116.232 374.465V373.202H161.012C166.601 373.202 171.575 376.929 173.084 382.276L173.296 383.076ZM128.134 381.813H171.575C169.981 377.455 165.73 374.465 160.991 374.465H121.716C124.712 375.918 127.093 378.55 128.134 381.813Z" fill="#3FB1B5"/>
<path d="M159.481 460.97H52.5798C47.8192 460.97 43.9512 457.139 43.9512 452.423V405.286C43.9512 400.57 47.8192 396.738 52.5798 396.738H159.481C164.242 396.738 168.11 400.57 168.11 405.286V452.423C168.11 457.139 164.242 460.97 159.481 460.97ZM52.5798 398.001C48.5205 398.001 45.2263 401.265 45.2263 405.286V452.423C45.2263 456.444 48.5205 459.707 52.5798 459.707H159.481C163.54 459.707 166.835 456.444 166.835 452.423V405.286C166.835 401.265 163.54 398.001 159.481 398.001H52.5798Z" fill="#3FB1B5"/>
<path d="M127.941 329.875C127.58 329.875 127.304 329.601 127.304 329.243C127.304 325.833 124.52 323.075 121.077 323.075H91.0042C87.5612 323.075 84.7771 325.833 84.7771 329.243C84.7771 329.601 84.5008 329.875 84.1395 329.875C83.7782 329.875 83.502 329.601 83.502 329.243C83.502 325.138 86.8599 321.812 91.0042 321.812H121.077C125.221 321.812 128.579 325.138 128.579 329.243C128.579 329.601 128.303 329.875 127.941 329.875Z" fill="#3FB1B5"/>
<path d="M127.941 428.55C127.58 428.55 127.304 428.276 127.304 427.918C127.304 424.507 124.52 421.749 121.077 421.749H91.0042C87.5612 421.749 84.7771 424.507 84.7771 427.918C84.7771 428.276 84.5008 428.55 84.1395 428.55C83.7782 428.55 83.502 428.276 83.502 427.918C83.502 423.813 86.8599 420.486 91.0042 420.486H121.077C125.221 420.486 128.579 423.813 128.579 427.918C128.579 428.276 128.303 428.55 127.941 428.55Z" fill="#3FB1B5"/>
<path d="M542.37 286.822H526.579V547.309H542.37V286.822Z" fill="white"/>
<path d="M543.008 547.94H525.942V286.19H543.008V547.94ZM527.217 546.677H541.733V287.454H527.217V546.677Z" fill="#3FB1B5"/>
<path d="M603.557 547.94H274.012C273.651 547.94 273.375 547.666 273.375 547.308C273.375 546.95 273.651 546.677 274.012 546.677H603.557C603.919 546.677 604.195 546.95 604.195 547.308C604.195 547.666 603.919 547.94 603.557 547.94Z" fill="#3FB1B5"/>
<path d="M74.5972 247.41H65.0548C65.0548 247.41 51.4317 191.178 39.4664 189.346C27.5011 187.515 26.8848 209.157 26.8848 209.157C26.8848 209.157 27.0973 176.251 57 180.757C86.9238 185.262 74.5972 247.41 74.5972 247.41Z" fill="white"/>
<path d="M75.1291 248.042H64.5665L64.439 247.558C64.3965 247.41 60.9748 233.347 56.1504 219.263C48.1594 195.957 42.6124 190.462 39.382 189.978C37.1717 189.641 35.2165 190.147 33.6012 191.494C27.9693 196.126 27.5442 209.052 27.5442 209.178L26.269 209.157C26.269 208.989 26.3115 205.136 27.5655 200.21C28.7344 195.641 31.1997 189.262 36.3641 184.883C41.6135 180.441 48.5844 178.841 57.128 180.147C62.6538 180.968 67.1381 183.789 70.4748 188.483C75.8305 196.041 78.2746 208.273 77.7007 224.884C77.2757 237.2 75.2779 247.431 75.2567 247.537L75.1291 248.042ZM65.5654 246.779H74.0878C74.4916 244.568 76.0643 235.473 76.4256 224.821C76.8081 213.599 75.8942 198.336 69.4334 189.22C66.3092 184.799 62.1012 182.168 56.9368 181.41C48.797 180.189 42.1448 181.683 37.1929 185.873C35.7052 187.136 34.4301 188.589 33.3674 190.126C35.1739 188.862 37.2567 188.42 39.5945 188.778C44.8014 189.578 50.7947 199.726 57.3831 218.926C61.6974 231.536 64.9065 244.168 65.5654 246.779Z" fill="#3FB1B5"/>
<path d="M70.4103 247.2C70.0703 247.2 69.7727 246.926 69.7727 246.568C69.0714 204.652 60.1027 189.852 52.7068 184.841C47.096 181.031 42.1867 182.757 42.1441 182.778C41.8041 182.904 41.4428 182.736 41.3153 182.399C41.1878 182.062 41.3578 181.704 41.6978 181.578C41.9316 181.494 47.2661 179.62 53.4294 183.789C58.19 187.031 62.0793 192.968 64.9696 201.473C68.6889 212.42 70.7291 227.578 71.0479 246.547C71.0479 246.905 70.7716 247.2 70.4103 247.2Z" fill="#3FB1B5"/>
<path d="M100.589 246.568H55.7671V282.716H100.589V246.568Z" fill="#FE5244"/>
<path d="M110.026 264.652C107.178 265.873 103.777 265.726 100.611 264.357C98.2727 263.347 96.0625 261.684 94.2772 259.41C91.8119 256.252 90.1542 251.936 90.1542 246.568C90.1542 233.557 79.6978 225.389 75.4048 242.61C75.1072 243.81 74.8309 245.115 74.5972 246.568V246.526V246.442C74.5972 246.399 74.5972 246.336 74.6184 246.273V246.189C74.7035 245.115 75.0222 241.936 75.9999 238.105C76.7225 235.262 77.8064 232.105 79.4216 229.178C80.2292 227.726 81.1643 226.336 82.2694 225.094C85.1173 221.852 89.0278 219.578 94.3622 219.578C104.181 219.578 111.364 231.031 114.106 242.441C116.508 252.357 115.53 262.273 110.026 264.652Z" fill="white"/>
<path d="M105.839 266.105C104.032 266.105 102.141 265.705 100.356 264.926C97.8266 263.831 95.5525 262.062 93.7673 259.789C90.9832 256.231 89.5168 251.641 89.5168 246.568C89.5168 240.631 86.8814 233.936 82.9496 233.473C80.1018 233.136 77.594 236.525 76.0213 242.757C75.7025 244.062 75.4474 245.325 75.2136 246.673L73.9385 246.568V246.441C73.9385 246.399 73.9385 246.294 73.9597 246.189V246.125C74.0447 244.947 74.3848 241.789 75.3624 237.936C76.2338 234.525 77.4027 231.473 78.8479 228.862C79.7617 227.241 80.7181 225.852 81.7807 224.673C85.1174 220.862 89.3467 218.946 94.3624 218.946C104.564 218.946 111.938 230.673 114.723 242.294C115.955 247.41 116.295 252.441 115.658 256.462C114.956 260.989 113.086 263.999 110.281 265.22C108.921 265.81 107.412 266.105 105.839 266.105ZM82.5671 232.188C82.7584 232.188 82.9284 232.21 83.0984 232.231C87.349 232.736 90.7919 239.178 90.7919 246.589C90.7919 251.389 92.1733 255.705 94.7874 259.052C96.4451 261.157 98.5492 262.799 100.866 263.81C103.905 265.115 107.157 265.22 109.771 264.105C114.531 262.041 116.04 253.22 113.49 242.631C112.066 236.673 109.537 231.178 106.391 227.157C102.842 222.631 98.6979 220.252 94.3624 220.252C89.7505 220.252 85.84 222.041 82.7584 225.557C81.7595 226.694 80.8456 227.978 79.9955 229.536C78.9329 231.473 78.019 233.641 77.2752 236.041C77.6365 235.452 77.9978 234.925 78.3803 234.462C79.8893 232.631 81.4194 232.188 82.5671 232.188Z" fill="#3FB1B5"/>
<path d="M107.751 265.684C107.433 265.684 107.156 265.452 107.114 265.115C104.011 236.252 96.9338 227.326 91.5569 224.926C86.7538 222.778 82.6945 225.578 82.652 225.599C82.3757 225.81 81.9719 225.726 81.7594 225.452C81.5468 225.178 81.6318 224.778 81.9081 224.568C82.0994 224.441 86.605 221.326 92.0669 223.768C95.6799 225.389 98.8253 229.052 101.397 234.694C104.627 241.747 106.965 251.936 108.368 264.968C108.41 265.305 108.155 265.621 107.794 265.663C107.794 265.684 107.773 265.684 107.751 265.684Z" fill="#3FB1B5"/>
<path d="M26.247 209.158C26.247 212.631 25.8432 225.916 38.6374 226.526C51.4316 227.137 52.7067 208 52.7067 208C52.7067 208 46.4159 191.073 39.4663 189.347C27.7135 186.421 26.247 209.158 26.247 209.158Z" fill="#3FB1B5"/>
<path d="M90.1542 246.569H74.5972C78.1889 224.274 90.1542 232.653 90.1542 246.569Z" fill="#3FB1B5"/>
<path opacity="0.4" d="M354.347 82.8196V221.789C354.347 229.263 348.227 235.305 340.703 235.305H180.138C170.065 249.053 149.301 249.116 139.142 235.305L139.121 235.284C135.083 235.01 131.512 232.968 129.217 229.958L132.915 226.8L227.277 146.125L317.134 69.3037H340.703C348.227 69.3037 354.347 75.3669 354.347 82.8196Z" fill="white"/>
<path opacity="0.4" d="M110.026 265.285C107.199 266.548 103.777 266.358 100.611 264.99V282.716H67.52L94.2985 259.832L100.632 254.421L105.456 250.295L114.786 242.442C117.507 253.937 115.998 262.569 110.026 265.285Z" fill="white"/>
<path d="M391.815 358.821V476.001H364.484L347.078 427.853L322.149 358.821H391.815Z" fill="#A0505A"/>
<path d="M322.149 358.821H391.815V396.443L330.438 381.748L322.149 358.821Z" fill="#73325A"/>
<path d="M392.453 476.633H364.038L345.91 426.485L347.397 427.285C347.44 427.306 350.968 429.18 358.151 430.106C364.782 430.97 376.004 431.159 391.667 427.222L392.453 427.033V476.633ZM364.931 475.37H391.178V428.654C375.664 432.464 364.527 432.233 357.875 431.37C353.051 430.738 349.863 429.706 348.184 429.033L364.931 475.37Z" fill="white"/>
<path d="M361.297 439.79C359.235 439.79 357.556 438.127 357.556 436.085C357.556 434.043 359.235 432.38 361.297 432.38C363.358 432.38 365.037 434.043 365.037 436.085C365.037 438.127 363.358 439.79 361.297 439.79ZM361.297 433.643C359.936 433.643 358.831 434.738 358.831 436.085C358.831 437.433 359.936 438.527 361.297 438.527C362.657 438.527 363.762 437.433 363.762 436.085C363.762 434.738 362.657 433.643 361.297 433.643Z" fill="white"/>
<path d="M376.089 449.706C374.027 449.706 372.348 448.043 372.348 446.001C372.348 443.959 374.027 442.296 376.089 442.296C378.15 442.296 379.829 443.959 379.829 446.001C379.829 448.043 378.15 449.706 376.089 449.706ZM376.089 443.559C374.728 443.559 373.623 444.654 373.623 446.001C373.623 447.349 374.728 448.443 376.089 448.443C377.449 448.443 378.554 447.349 378.554 446.001C378.554 444.654 377.449 443.559 376.089 443.559Z" fill="white"/>
<path d="M387.098 438.696C385.036 438.696 383.357 437.033 383.357 434.99C383.357 432.948 385.036 431.285 387.098 431.285C389.159 431.285 390.838 432.948 390.838 434.99C390.838 437.033 389.159 438.696 387.098 438.696ZM387.098 432.548C385.737 432.548 384.632 433.643 384.632 434.99C384.632 436.338 385.737 437.433 387.098 437.433C388.458 437.433 389.563 436.338 389.563 434.99C389.563 433.643 388.458 432.548 387.098 432.548Z" fill="white"/>
<path d="M382.741 461.244C380.679 461.244 379 459.58 379 457.538C379 455.496 380.679 453.833 382.741 453.833C384.802 453.833 386.481 455.496 386.481 457.538C386.481 459.58 384.802 461.244 382.741 461.244ZM382.741 455.096C381.38 455.096 380.275 456.191 380.275 457.538C380.275 458.886 381.38 459.98 382.741 459.98C384.101 459.98 385.206 458.886 385.206 457.538C385.206 456.191 384.101 455.096 382.741 455.096Z" fill="white"/>
<path d="M364.4 455.643C362.338 455.643 360.659 453.98 360.659 451.938C360.659 449.896 362.338 448.232 364.4 448.232C366.461 448.232 368.14 449.896 368.14 451.938C368.14 453.98 366.461 455.643 364.4 455.643ZM364.4 449.496C363.04 449.496 361.934 450.59 361.934 451.938C361.934 453.285 363.04 454.38 364.4 454.38C365.76 454.38 366.865 453.285 366.865 451.938C366.865 450.59 365.76 449.496 364.4 449.496Z" fill="white"/>
<path d="M369.458 472.486C367.396 472.486 365.717 470.823 365.717 468.78C365.717 466.738 367.396 465.075 369.458 465.075C371.519 465.075 373.198 466.738 373.198 468.78C373.198 470.823 371.519 472.486 369.458 472.486ZM369.458 466.338C368.098 466.338 366.992 467.433 366.992 468.78C366.992 470.128 368.098 471.223 369.458 471.223C370.818 471.223 371.923 470.128 371.923 468.78C371.923 467.433 370.818 466.338 369.458 466.338Z" fill="white"/>
<path d="M404.737 497.854L385.992 536.402C383.336 542.613 377.194 546.655 370.372 546.655H346.462C340.341 546.655 336.622 540.507 338.96 534.907L362.997 477.475C364.336 473.98 366.695 471.075 369.649 469.033C372.624 466.991 376.195 465.833 379.957 465.833C385.185 465.833 390.37 469.349 393.813 473.244L402.144 482.149C405.991 486.486 406.99 492.57 404.737 497.854Z" fill="#66B0F0"/>
<path d="M404.738 497.854L385.993 536.402C383.336 542.612 377.194 546.655 370.372 546.655H344.954C342.595 546.655 341.256 545.202 340.469 543.202H346.122C352.945 543.202 359.087 539.16 361.743 532.949L383.357 488.296C385.376 484.128 389.648 481.454 394.324 481.454C400.423 481.454 405.056 485.875 405.906 491.475C405.991 493.623 405.609 495.791 404.738 497.854Z" fill="white"/>
<path d="M370.372 547.286H344.953C342.594 547.286 340.873 545.981 339.874 543.433C339.789 543.244 339.831 543.012 339.938 542.844C340.065 542.675 340.256 542.57 340.469 542.57H346.122C352.689 542.57 358.598 538.696 361.148 532.696C361.148 532.696 361.148 532.675 361.169 532.675L382.783 488.022C384.908 483.643 389.435 480.822 394.323 480.822C400.466 480.822 405.609 485.264 406.544 491.391C406.544 491.412 406.544 491.433 406.544 491.454C406.629 493.728 406.225 495.98 405.332 498.107C405.332 498.107 405.332 498.128 405.311 498.128L386.566 536.654C383.803 543.117 377.449 547.286 370.372 547.286ZM341.468 543.833C342.275 545.328 343.402 546.023 344.953 546.023H370.372C376.939 546.023 382.847 542.149 385.397 536.149C385.397 536.149 385.397 536.128 385.419 536.128L404.163 497.601C404.971 495.664 405.354 493.622 405.269 491.538C404.419 486.064 399.828 482.085 394.323 482.085C389.924 482.085 385.844 484.633 383.931 488.57L362.317 533.202C359.554 539.665 353.199 543.833 346.122 543.833H341.468Z" fill="#66B0F0"/>
<path d="M400.423 480.296C398.17 479.075 395.45 478.191 393.069 478.191C388.5 478.191 384.271 480.823 382.294 484.907L359.915 531.139C357.067 537.812 350.479 542.128 343.147 542.128H339.024C338.811 541.728 338.662 541.307 338.514 540.865H343.147C349.969 540.865 356.09 536.844 358.746 530.633L358.768 530.612L381.168 484.359C383.357 479.833 388.033 476.928 393.091 476.928C394.706 476.928 396.64 477.454 398.298 478.022L400.423 480.296Z" fill="white"/>
<path d="M322.149 358.821L316.814 427.853L314.434 458.78C314.434 458.78 298.898 475.917 281.216 465.348L273.034 427.874L254.31 342.126C249.252 318.947 265.234 296.4 288.973 293.263L322.149 358.821Z" fill="#A0505A"/>
<path d="M293.182 470.253C289.377 470.253 285.19 469.306 280.897 466.737L280.664 466.59L272.205 426.969L273.225 427.285C293.352 433.264 316.432 427.327 316.666 427.264L317.537 427.032L315.072 459.895L314.923 460.064C314.753 460.232 310.885 464.464 304.743 467.453C301.661 468.927 297.666 470.253 293.182 470.253ZM281.79 465.79C288.846 469.916 296.369 470.085 304.148 466.316C309.419 463.748 313.074 460.127 313.818 459.348L316.113 428.674C314.179 429.116 309.164 430.19 302.681 430.779C295.222 431.474 284.277 431.642 273.863 428.779L281.79 465.79Z" fill="white"/>
<path d="M292.395 447.58C290.333 447.58 288.654 445.916 288.654 443.874C288.654 441.832 290.333 440.169 292.395 440.169C294.456 440.169 296.135 441.832 296.135 443.874C296.135 445.916 294.456 447.58 292.395 447.58ZM292.395 441.432C291.035 441.432 289.929 442.527 289.929 443.874C289.929 445.222 291.035 446.316 292.395 446.316C293.755 446.316 294.86 445.222 294.86 443.874C294.86 442.527 293.755 441.432 292.395 441.432Z" fill="white"/>
<path d="M312.117 442.864C310.056 442.864 308.377 441.201 308.377 439.158C308.377 437.116 310.056 435.453 312.117 435.453C314.179 435.453 315.858 437.116 315.858 439.158C315.858 441.201 314.179 442.864 312.117 442.864ZM312.117 436.716C310.757 436.716 309.652 437.811 309.652 439.158C309.652 440.506 310.757 441.601 312.117 441.601C313.478 441.601 314.583 440.506 314.583 439.158C314.583 437.811 313.478 436.716 312.117 436.716Z" fill="white"/>
<path d="M280.493 438.695C278.432 438.695 276.753 437.032 276.753 434.989C276.753 432.947 278.432 431.284 280.493 431.284C282.555 431.284 284.234 432.947 284.234 434.989C284.234 437.032 282.555 438.695 280.493 438.695ZM280.493 432.547C279.133 432.547 278.028 433.642 278.028 434.989C278.028 436.337 279.133 437.432 280.493 437.432C281.854 437.432 282.959 436.337 282.959 434.989C282.959 433.642 281.854 432.547 280.493 432.547Z" fill="white"/>
<path d="M289.292 464.316C287.231 464.316 285.552 462.653 285.552 460.611C285.552 458.568 287.231 456.905 289.292 456.905C291.354 456.905 293.033 458.568 293.033 460.611C293.033 462.653 291.354 464.316 289.292 464.316ZM289.292 458.168C287.932 458.168 286.827 459.263 286.827 460.611C286.827 461.958 287.932 463.053 289.292 463.053C290.652 463.053 291.758 461.958 291.758 460.611C291.758 459.263 290.652 458.168 289.292 458.168Z" fill="white"/>
<path d="M303.765 458.168C301.704 458.168 300.025 456.505 300.025 454.463C300.025 452.421 301.704 450.758 303.765 450.758C305.827 450.758 307.506 452.421 307.506 454.463C307.506 456.505 305.827 458.168 303.765 458.168ZM303.765 452.021C302.405 452.021 301.3 453.116 301.3 454.463C301.3 455.811 302.405 456.905 303.765 456.905C305.126 456.905 306.231 455.811 306.231 454.463C306.231 453.116 305.126 452.021 303.765 452.021Z" fill="white"/>
<path d="M334.922 466.148L314.434 547.307H307.973C307.676 547.307 307.399 547.286 307.102 547.265C302.214 546.823 298.091 542.738 297.049 537.917L281.195 465.306C298.877 475.896 314.434 458.759 314.434 458.759L334.922 466.148Z" fill="#66B0F0"/>
<path d="M335.963 507.792C340.277 485.223 341.467 467.981 334.029 466.591C326.591 465.202 313.35 480.17 309.036 502.739C304.722 525.307 306.974 545.266 314.413 546.655C321.851 548.066 331.649 530.381 335.963 507.792Z" fill="white"/>
<path d="M315.263 547.37C314.944 547.37 314.604 547.349 314.286 547.286C310.418 546.57 307.718 541.391 306.677 532.717C305.678 524.36 306.295 513.665 308.399 502.633C310.396 492.212 314.456 482.507 319.833 475.306C324.763 468.717 330.119 465.222 334.136 465.98C338.004 466.696 339.916 471.033 340.023 479.243C340.108 485.938 338.981 495.307 336.58 507.917C334.879 516.802 332.308 525.16 329.141 532.086C326.017 538.928 322.595 543.728 319.259 545.981C317.899 546.886 316.56 547.37 315.263 547.37ZM333.03 467.138C329.63 467.138 325.061 470.464 320.874 476.064C315.603 483.117 311.629 492.633 309.652 502.865C307.57 513.791 306.953 524.338 307.931 532.57C308.887 540.528 311.289 545.433 314.519 546.044C315.752 546.275 317.112 545.897 318.557 544.928C325.082 540.528 331.989 525.223 335.326 507.686C337.727 495.18 338.832 485.875 338.747 479.264C338.662 471.854 337.026 467.812 333.902 467.222C333.626 467.159 333.328 467.138 333.03 467.138Z" fill="#66B0F0"/>
<path d="M306.06 502.38C303.829 514.085 303.17 525.391 304.232 534.233C304.998 540.591 306.613 545.117 308.823 547.307H307.973C307.675 547.307 307.399 547.285 307.102 547.264C305.104 544.654 303.68 540.275 302.957 534.38C301.873 525.433 302.532 513.98 304.806 502.148C306.953 490.948 311.288 480.443 317.048 472.548C320.491 467.832 324.104 464.527 327.398 463.032L329.311 463.664C321.723 465.895 310.204 480.717 306.06 502.38Z" fill="white"/>
<path d="M288.974 293.242L385.929 283.347L482.841 310.273L482.012 323.031C480.695 343.158 463.183 358.821 442.822 358.821H322.17L288.974 293.242Z" fill="#FE5244"/>
<path d="M438.55 350.611H317.898C317.537 350.611 317.261 350.337 317.261 349.979C317.261 349.621 317.537 349.348 317.898 349.348H438.55C447.774 349.348 457.444 344.527 465.095 336.084C472.342 328.084 476.678 318.084 476.678 309.347C476.678 308.99 476.954 308.716 477.315 308.716C477.677 308.716 477.953 308.99 477.953 309.347C477.953 318.4 473.49 328.716 466.051 336.948C458.145 345.621 448.135 350.611 438.55 350.611Z" fill="white"/>
<path d="M429.05 340.084H313.01C312.649 340.084 312.373 339.81 312.373 339.453C312.373 339.095 312.649 338.821 313.01 338.821H429.05C437.105 338.821 445.436 335.074 452.471 328.252C459.08 321.852 463.714 313.6 465.18 305.6C465.244 305.263 465.584 305.031 465.924 305.094C466.264 305.158 466.498 305.494 466.434 305.831C463.437 322.021 447.349 340.084 429.05 340.084Z" fill="white"/>
<path d="M418.828 329.348H306.847C306.486 329.348 306.209 329.074 306.209 328.716C306.209 328.358 306.486 328.084 306.847 328.084H418.828C434.13 328.084 447.413 314.442 452.152 301.621C452.28 301.284 452.641 301.116 452.96 301.242C453.3 301.368 453.47 301.726 453.342 302.042C450.707 309.179 445.946 315.895 439.911 320.948C433.343 326.442 426.054 329.348 418.828 329.348Z" fill="white"/>
<path d="M413.302 317.769H301.321C300.96 317.769 300.684 317.495 300.684 317.137C300.684 316.779 300.96 316.505 301.321 316.505H413.302C423.843 316.505 434.895 309.705 442.163 298.779C442.354 298.484 442.758 298.4 443.056 298.589C443.353 298.779 443.438 299.179 443.247 299.474C435.724 310.758 424.268 317.769 413.302 317.769Z" fill="white"/>
<path d="M407.989 307.242H296.008C295.647 307.242 295.371 306.968 295.371 306.61C295.371 306.252 295.647 305.979 296.008 305.979H407.989C416.108 305.979 424.29 302.273 431.027 295.558C431.282 295.305 431.686 295.305 431.92 295.558C432.175 295.81 432.175 296.21 431.92 296.442C424.949 303.41 416.448 307.242 407.989 307.242Z" fill="white"/>
<path d="M402.251 296.505H290.27C289.909 296.505 289.632 296.231 289.632 295.874C289.632 295.516 289.909 295.242 290.27 295.242H402.251C407.033 295.242 411.836 293.895 416.554 291.263C416.851 291.095 417.255 291.2 417.425 291.495C417.595 291.789 417.489 292.189 417.191 292.358C412.282 295.116 407.245 296.505 402.251 296.505Z" fill="white"/>
<path d="M321.937 359.453C321.703 359.453 321.469 359.326 321.363 359.095L288.187 293.515C288.039 293.199 288.166 292.82 288.464 292.673C288.782 292.526 289.165 292.652 289.314 292.947L322.489 358.526C322.638 358.842 322.511 359.221 322.213 359.368C322.128 359.432 322.043 359.453 321.937 359.453Z" fill="white"/>
<path d="M488.155 222.4C479.016 224.968 470.026 224.21 469.07 221.452C468.177 218.821 472.215 214.315 480.397 211.326C480.801 211.179 481.226 211.031 481.651 210.884C484.116 210.063 486.582 209.536 488.898 209.263C495.763 208.4 501.352 209.621 502.054 211.684C503.01 214.442 497.825 219.684 488.155 222.4Z" fill="white"/>
<path d="M477.273 224.61C472.64 224.61 469.133 223.578 468.453 221.662C467.305 218.294 472.342 213.599 480.163 210.736C480.567 210.589 480.992 210.441 481.417 210.294H481.439C483.84 209.494 486.327 208.947 488.813 208.652C495.848 207.768 501.799 208.989 502.649 211.494C502.946 212.315 502.797 213.326 502.245 214.378C500.46 217.747 494.998 221.157 488.324 223.031C484.478 224.084 480.588 224.61 477.273 224.61ZM493.255 209.62C491.959 209.62 490.535 209.705 488.983 209.894C486.582 210.189 484.18 210.715 481.864 211.494C481.439 211.641 481.013 211.789 480.631 211.936C476.933 213.283 473.788 215.073 471.79 216.989C470.111 218.589 469.324 220.189 469.686 221.263C470.387 223.305 478.569 224.441 487.984 221.81C493.191 220.357 499.27 217.305 501.119 213.789C501.501 213.052 501.629 212.399 501.459 211.894C501.076 210.778 498.058 209.62 493.255 209.62Z" fill="#3FB1B5"/>
<path d="M482.374 283.789H478.867L469.664 222.252V222.21L469.431 220.673C469.877 217.873 474.298 213.915 482.097 211.346C485.987 210.062 489.855 209.494 493.149 209.431L496.507 218.547L496.825 219.41L507.452 248.273C513.828 265.515 500.927 283.789 482.374 283.789Z" fill="#A0505A"/>
<path d="M496.719 219.199C494.488 220.589 491.597 221.873 488.154 222.841C480.248 225.052 472.236 224.147 469.664 222.252V222.21L469.431 220.673C469.877 217.873 474.298 213.915 482.097 211.346C485.987 210.062 489.855 209.494 493.149 209.431L496.719 219.199Z" fill="#73325A"/>
<path d="M368.544 233.157L357.386 260.652C351.882 274.231 338.577 283.136 323.785 283.136H173.805V269.536C173.805 266.252 175.845 263.305 178.948 262.147L194.356 256.357C195.759 255.831 197.225 255.557 198.713 255.557H216.204L315.199 245.662L332.286 206.904L368.544 233.157Z" fill="#A0505A"/>
<path d="M174.442 275.284C174.081 275.284 173.805 275.01 173.805 274.653C173.805 271.895 175.484 269.474 178.098 268.484L189.723 264.126C190.042 264 190.424 264.168 190.552 264.484C190.679 264.8 190.509 265.179 190.191 265.305L178.565 269.663C176.461 270.463 175.08 272.421 175.08 274.653C175.08 275.01 174.804 275.284 174.442 275.284Z" fill="#73325A"/>
<path d="M174.442 282.231C174.081 282.231 173.805 281.958 173.805 281.6C173.805 278.842 175.484 276.421 178.098 275.431L189.723 271.073C190.042 270.947 190.424 271.116 190.552 271.431C190.679 271.747 190.509 272.126 190.191 272.252L178.565 276.61C176.461 277.41 175.08 279.368 175.08 281.6C175.08 281.958 174.804 282.231 174.442 282.231Z" fill="#73325A"/>
<path d="M178.331 283.137C178.076 283.137 177.821 282.969 177.736 282.716C177.609 282.379 177.779 282.021 178.119 281.916L189.744 277.769C190.084 277.642 190.445 277.811 190.552 278.147C190.679 278.484 190.509 278.842 190.169 278.947L178.544 283.095C178.48 283.116 178.395 283.137 178.331 283.137Z" fill="#73325A"/>
<path d="M188.745 258.694C188.745 258.694 199.627 231.178 203.112 231.642C206.597 232.105 193.463 256.926 193.463 256.926L188.745 258.694Z" fill="#FE5244"/>
<path d="M332.286 206.926L329.778 212.589L361.891 249.537L368.543 233.158L332.286 206.926Z" fill="#73325A"/>
<path d="M469.664 222.273L482.841 310.273L385.95 283.347L368.544 233.136L323.615 200.609L339.385 181.999C353.454 165.388 374.218 155.788 396.108 155.788H427.244C454.32 155.788 479.249 170.441 492.235 193.978L502.33 211.283C502.33 211.283 499.291 206.862 482.905 211.304C468.474 215.241 469.664 222.273 469.664 222.273Z" fill="#3FB1B5"/>
<path d="M368.544 233.368C368.501 233.368 368.438 233.368 368.395 233.347C368.055 233.263 367.842 232.926 367.927 232.589L372.964 210.947C373.049 210.61 373.389 210.399 373.729 210.483C374.069 210.568 374.282 210.904 374.197 211.241L369.16 232.884C369.096 233.178 368.841 233.368 368.544 233.368Z" fill="white"/>
<path d="M480.397 290.358C480.099 290.358 479.823 290.147 479.759 289.831L463.373 188.925C463.31 188.589 463.543 188.252 463.905 188.21C464.245 188.146 464.585 188.378 464.627 188.736L481.013 289.642C481.077 289.979 480.843 290.316 480.482 290.358C480.461 290.358 480.439 290.358 480.397 290.358Z" fill="white"/>
<path d="M482.629 310.905C482.565 310.905 482.522 310.905 482.458 310.884L385.758 283.557C385.418 283.452 385.227 283.115 385.312 282.778C385.418 282.442 385.758 282.252 386.098 282.336L482.798 309.663C483.139 309.768 483.33 310.105 483.245 310.442C483.16 310.716 482.905 310.905 482.629 310.905Z" fill="white"/>
<path d="M391.157 141.725V155.872L416.362 155.662V130.693L391.157 141.725Z" fill="#A0505A"/>
<path d="M418.403 126.335V126.714C418.403 130.504 415.512 133.577 411.687 133.577H410.199C409.243 137.325 400.742 141.704 394.706 141.704H387.671C379.978 141.704 374.091 134.862 375.345 127.325L375.685 125.283L373.602 124.125C372.412 123.451 372.072 121.914 372.9 120.819L377.406 114.925L378.384 109.114C379.17 104.335 382.337 100.44 386.545 98.5244C388.202 117.03 404.695 119.219 409.051 119.472H411.474C415.3 119.472 418.403 122.546 418.403 126.335Z" fill="#A0505A"/>
<path d="M407.245 128.777C406.884 128.777 406.607 128.504 406.607 128.146C406.607 124.819 409.349 122.104 412.707 122.104C413.068 122.104 413.345 122.377 413.345 122.735C413.345 123.093 413.068 123.367 412.707 123.367C410.05 123.367 407.883 125.514 407.883 128.146C407.883 128.504 407.606 128.777 407.245 128.777Z" fill="#73325A"/>
<path d="M384.207 119.662C384.806 119.662 385.291 118.55 385.291 117.178C385.291 115.806 384.806 114.693 384.207 114.693C383.608 114.693 383.123 115.806 383.123 117.178C383.123 118.55 383.608 119.662 384.207 119.662Z" fill="#73325A"/>
<path d="M388.627 114.041C388.436 114.041 388.245 113.956 388.117 113.788C385.291 109.914 382.655 110.125 382.613 110.125C382.251 110.167 381.954 109.914 381.911 109.556C381.869 109.22 382.124 108.904 382.485 108.862C382.613 108.841 385.886 108.588 389.137 113.03C389.35 113.304 389.286 113.704 388.989 113.914C388.882 113.999 388.755 114.041 388.627 114.041Z" fill="#73325A"/>
<path d="M409.052 119.472H411.474C415.3 119.472 418.403 122.546 418.403 126.335V126.714C418.403 130.504 415.512 133.577 411.687 133.577L410.05 134.714C403.165 139.093 393.643 156.314 395.981 168.504C398.616 182.209 410.667 185.262 421.803 183.157C432.94 181.051 441.058 174.63 438.423 160.904C438.125 159.283 437.637 157.662 437.02 156.062C437.212 156.125 437.382 156.188 437.573 156.251C450.962 159.872 466.689 160.293 471.025 149.935C475.36 139.577 474.383 129.325 461.355 123.977C453.789 120.862 443.502 120.883 435.533 123.03C439.549 109.198 432.408 93.8087 419.295 92.2718C398.701 89.8507 386.885 98.2719 386.566 98.5034C386.545 100.946 388.224 118.272 409.052 119.472Z" fill="#73325A"/>
<path d="M437.573 156.904C437.275 156.904 436.999 156.694 436.957 156.399C434.704 144.714 425.055 138.272 424.949 138.209C424.779 138.104 424.672 137.893 424.672 137.683C424.672 137.472 424.779 137.283 424.949 137.157C431.537 132.546 434.385 125.893 435.49 122.356C435.596 122.02 435.958 121.83 436.276 121.935C436.617 122.041 436.808 122.398 436.702 122.714C435.596 126.293 432.791 132.862 426.394 137.662C428.795 139.451 436.213 145.725 438.211 156.146C438.274 156.483 438.04 156.82 437.7 156.883C437.658 156.904 437.615 156.904 437.573 156.904Z" fill="white"/>
<path d="M441.845 122.714H436.213C435.851 122.714 435.575 122.441 435.575 122.083V116.504C435.575 113.241 438.253 110.588 441.547 110.588H441.845C445.139 110.588 447.817 113.241 447.817 116.504V116.798C447.838 118.356 447.222 119.851 446.095 120.967C444.969 122.083 443.46 122.714 441.845 122.714ZM436.85 121.451H441.845C443.12 121.451 444.289 120.967 445.182 120.062C446.053 119.177 446.542 118.02 446.542 116.798V116.504C446.542 113.935 444.438 111.851 441.845 111.851H441.547C438.954 111.851 436.85 113.935 436.85 116.504V121.451Z" fill="#FE5244"/>
<path d="M444.99 131.262C442.716 131.262 440.527 130.167 439.23 128.146L435.617 122.462C435.426 122.167 435.511 121.767 435.809 121.599L441.547 118.02C443.077 117.073 444.905 116.757 446.669 117.157C448.433 117.557 449.942 118.609 450.919 120.125L451.259 120.652C452.237 122.167 452.535 123.978 452.131 125.725C451.727 127.473 450.664 128.967 449.134 129.936L448.603 130.273C447.498 130.925 446.244 131.262 444.99 131.262ZM437.041 122.315L440.314 127.473C441.929 129.999 445.351 130.757 447.944 129.157L448.475 128.82C449.729 128.041 450.579 126.841 450.898 125.41C451.217 123.978 450.962 122.525 450.175 121.283L449.835 120.757C449.049 119.515 447.838 118.673 446.392 118.357C444.947 118.041 443.481 118.294 442.227 119.073L437.041 122.315Z" fill="#FE5244"/>
<path d="M410.178 148.104C410.029 148.104 409.88 148.104 409.731 148.083C408.137 147.956 406.692 147.241 405.651 146.041L405.459 145.809C404.418 144.63 403.908 143.114 404.014 141.556C404.121 139.977 404.843 138.525 406.055 137.493L410.05 133.704C410.178 133.577 410.348 133.514 410.518 133.535C410.688 133.535 410.858 133.619 410.964 133.746L414.896 138.146C415.937 139.346 416.468 140.883 416.341 142.462C416.213 144.041 415.491 145.472 414.279 146.504L414.024 146.693C412.983 147.599 411.623 148.104 410.178 148.104ZM410.475 135.051L406.947 138.398L406.926 138.42C405.97 139.241 405.396 140.377 405.311 141.641C405.226 142.883 405.63 144.062 406.437 144.988C406.437 144.988 406.437 145.009 406.458 145.009L406.65 145.241C407.457 146.167 408.584 146.735 409.838 146.841C411.091 146.925 412.303 146.525 413.259 145.725L413.514 145.514C414.449 144.714 415.023 143.598 415.129 142.356C415.214 141.114 414.811 139.914 414.003 138.967L410.475 135.051Z" fill="#FE5244"/>
<path d="M418.318 145.788C415.342 145.788 412.601 143.83 411.75 140.862L409.944 134.399C409.859 134.062 410.05 133.725 410.39 133.62L416.915 131.83C418.658 131.346 420.485 131.577 422.058 132.441C423.631 133.325 424.778 134.756 425.267 136.483L425.437 137.093C425.926 138.82 425.692 140.63 424.821 142.188C423.928 143.746 422.483 144.883 420.74 145.367L420.124 145.535C419.508 145.725 418.913 145.788 418.318 145.788ZM412.983 140.525C413.812 143.409 416.851 145.135 419.763 144.335L420.379 144.167C421.803 143.767 422.972 142.862 423.694 141.599C424.417 140.335 424.587 138.862 424.205 137.451L424.034 136.841C423.631 135.43 422.717 134.272 421.442 133.556C420.166 132.841 418.679 132.672 417.255 133.051L411.347 134.672L412.983 140.525Z" fill="#FE5244"/>
<path d="M317.345 547.286C317.303 547.286 317.26 547.286 317.218 547.265C316.878 547.202 316.644 546.865 316.729 546.507L353.751 374.864C353.815 374.527 354.155 374.295 354.516 374.38C354.856 374.443 355.09 374.78 355.005 375.138L317.962 546.781C317.898 547.076 317.643 547.286 317.345 547.286Z" fill="#FFCF2D"/>
<path d="M486.135 547.286C485.837 547.286 485.582 547.075 485.518 546.781L448.496 375.137C448.432 374.8 448.645 374.464 448.985 374.379C449.325 374.316 449.665 374.527 449.75 374.864L486.772 546.507C486.836 546.844 486.624 547.181 486.283 547.265C486.22 547.286 486.177 547.286 486.135 547.286Z" fill="#FFCF2D"/>
<path d="M477.421 509.18H325.549C325.188 509.18 324.912 508.907 324.912 508.549C324.912 508.191 325.188 507.917 325.549 507.917H477.421C477.783 507.917 478.059 508.191 478.059 508.549C478.059 508.907 477.783 509.18 477.421 509.18Z" fill="#FFCF2D"/>
<path d="M478.25 375.011H325.209C323.275 375.011 321.702 373.453 321.702 371.537V362.295C321.702 360.379 323.275 358.821 325.209 358.821H478.25C480.184 358.821 481.757 360.379 481.757 362.295V371.537C481.757 373.453 480.184 375.011 478.25 375.011Z" fill="white"/>
<path d="M478.25 375.642H325.209C322.913 375.642 321.064 373.811 321.064 371.537V362.295C321.064 360.021 322.913 358.189 325.209 358.189H478.25C480.545 358.189 482.394 360.021 482.394 362.295V371.537C482.394 373.811 480.545 375.642 478.25 375.642ZM325.209 359.453C323.636 359.453 322.34 360.737 322.34 362.295V371.537C322.34 373.095 323.636 374.379 325.209 374.379H478.25C479.823 374.379 481.119 373.095 481.119 371.537V362.295C481.119 360.737 479.823 359.453 478.25 359.453H325.209Z" fill="#66B0F0"/>
</svg>
